<svg xmlns="http://www.w3.org/2000/svg" width="415.676" height="556.221" viewBox="0 0 415.676 556.221">
  <g id="Group_1" data-name="Group 1" transform="translate(-90.697 -38.424)">
    <g id="Kiakaha-logo" transform="translate(335.062 597.247) rotate(-171)">
      <path id="Path_9" data-name="Path 9" d="M93.9,0C67.538,8.63,21.206,27.761,4.8,80.942c47.523,35.536,7.782,62.862-4.8,64,2.054,18.865,14.042,40.9,21.964,46.941C0,144.94,38.8,110.631,54.429,96.063,50,89.9,40.772,25.686,93.9,0Z" transform="translate(0 3.197)" stroke="#000" stroke-miterlimit="10" stroke-width="1"/>
      <path id="Path_12" data-name="Path 12" d="M31.182,15.556c11.5,48.7,159.675,94.093,168.565,26.443,2.538-28.147-91.107-58.579-59.385-13.383-33.678-40.927,40.3-31.554,66.942-11.434,30.271,23.506,50.236,93.666-41.473,119.275C154.5,113,130.744,54.9,72.936,87.054,72.719,40.064,27.873,41.613,19.4,60.142,5.8,92.88,49.647,103.29,52.255,77.247c1.956,16.068-12.92,32.009-34.982,22.952C-6.309,87.692-9.38,39.4,31.182,15.556Z" transform="translate(29.528 103.13)" stroke="#000" stroke-miterlimit="10" stroke-width="1"/>
      <path id="Path_13" data-name="Path 13" d="M0,18.174c6.569,7.487,49.893,43.17,139.955,30.937C139.471,35.1,118.98-9.79,84.314,1.931,115.79-.557,112.559,27.61,95.215,33.12c-8.987,3.821-35.466,8.938-33.923-27.586C50.271,31.866,35.8,39.381,0,18.174Z" transform="translate(35.304 197.486)" stroke="#000" stroke-miterlimit="10" stroke-width="1"/>
      <path id="Path_14" data-name="Path 14" d="M0,0" transform="translate(54.176 254.287)" stroke="#000" stroke-miterlimit="10" stroke-width="1"/>
      <path id="Path_15" data-name="Path 15" d="M0,0" transform="translate(247.41 0)" stroke="#000" stroke-miterlimit="10" stroke-width="1"/>
    </g>
    <g id="Kiakaha-logo-2" data-name="Kiakaha-logo" transform="translate(156.006 32.322) rotate(9)">
      <path id="Path_9-2" data-name="Path 9" d="M93.9,0C67.538,8.63,21.206,27.761,4.8,80.942c47.523,35.536,7.782,62.862-4.8,64,2.054,18.865,14.042,40.9,21.964,46.941C0,144.94,38.8,110.631,54.429,96.063,50,89.9,40.772,25.686,93.9,0Z" transform="translate(0 6.741)" stroke="#000" stroke-miterlimit="10" stroke-width="1"/>
      <path id="Path_10" data-name="Path 10" d="M133.124,138.382C166.78,178.607,3.873,194.051.073,84.058-2.927-2.821,86.7-7.315,132.03,5.143S311.152,93.649,280.482,282C269,213.652,180.7,236.338,179.35,298.814c-4.522-8.966-27.81-33.411-47.474-34.134,114.4-39.027,98.8-165.452-8.854-175.056-44.284-2.678-51.891,20.73-51.267,38.95C73.668,163.584,148.974,170.8,133.124,138.382Z" transform="translate(69.14)" stroke="#000" stroke-miterlimit="10" stroke-width="1"/>
      <path id="Path_11" data-name="Path 11" d="M77.636,47.254c-2.292,14.813-35.486,89.607-54.667,102.9C23.523,84.9-5.493,77.483.928,40.082c16.86-80.549,97.557-18.8,49.283,5.314C82.487,25.34,44.89-7.027,26.411,26.581,15.5,55.716,32.84,70.55,53.036,66.343S77.636,47.254,77.636,47.254Z" transform="translate(267.177 258.059)" stroke="#000" stroke-miterlimit="10" stroke-width="1"/>
      <path id="Path_12-2" data-name="Path 12" d="M31.182,15.556c11.5,48.7,159.675,94.093,168.565,26.443,2.538-28.147-91.107-58.579-59.385-13.383-33.678-40.927,40.3-31.554,66.942-11.434,30.271,23.506,50.236,93.666-41.473,119.275C154.5,113,130.744,54.9,72.936,87.054,72.719,40.064,27.873,41.613,19.4,60.142,5.8,92.88,49.647,103.29,52.255,77.247c1.956,16.068-12.92,32.009-34.982,22.952C-6.309,87.692-9.38,39.4,31.182,15.556Z" transform="translate(29.528 106.674)" stroke="#000" stroke-miterlimit="10" stroke-width="1"/>
      <path id="Path_13-2" data-name="Path 13" d="M0,18.174c6.569,7.487,49.893,43.17,139.955,30.937C139.471,35.1,118.98-9.79,84.314,1.931,115.79-.557,112.559,27.61,95.215,33.12c-8.987,3.821-35.466,8.938-33.923-27.586C50.271,31.866,35.8,39.381,0,18.174Z" transform="translate(35.304 201.03)" stroke="#000" stroke-miterlimit="10" stroke-width="1"/>
      <path id="Path_14-2" data-name="Path 14" d="M0,0" transform="translate(54.176 257.832)" stroke="#000" stroke-miterlimit="10" stroke-width="1"/>
      <path id="Path_15-2" data-name="Path 15" d="M0,0" transform="translate(247.41 3.544)" stroke="#000" stroke-miterlimit="10" stroke-width="1"/>
    </g>
  </g>
</svg>
